# Blender v2.79 (sub 0) OBJ File: 'Diamond.blend'
# www.blender.org
mtllib Diamond.mtl
o Плоскость.008
v 2.269001 4.838880 3.330040
v 2.244317 3.580259 3.346480
v 1.010277 4.863602 3.332851
v 0.985593 3.604982 3.349292
v 0.891753 4.984382 3.172627
v 2.391459 4.954926 3.169277
v 2.362050 3.455343 3.188865
v 0.862343 3.484798 3.192215
v 1.009913 4.861702 3.186873
v 2.268637 4.836980 3.184061
v 2.243954 3.578359 3.200501
v 0.985230 3.603082 3.203313
vn 0.0196 0.9997 -0.0131
vn -0.0025 -0.0130 -0.9999
vn -0.0141 -0.7887 0.6146
vn 0.0171 0.8045 0.5937
vn -0.7952 0.0235 0.6059
vn 0.7982 -0.0078 0.6024
vn 0.0025 0.0130 0.9999
vn -0.0196 -0.9997 0.0131
vn 0.9998 -0.0196 -0.0022
vn -0.9998 0.0196 0.0022
usemtl None
s off
f 4//1 2//1 11//1 12//1
f 6//2 7//2 8//2 5//2
f 2//3 4//3 8//3 7//3
f 3//4 1//4 6//4 5//4
f 4//5 3//5 5//5 8//5
f 1//6 2//6 7//6 6//6
f 10//7 9//7 12//7 11//7
f 1//8 3//8 9//8 10//8
f 3//9 4//9 12//9 9//9
f 2//10 1//10 10//10 11//10
o Плоскость.007
v -1.608072 4.925818 3.347324
v -1.632404 3.667197 3.364281
v -2.866458 4.950541 3.376640
v -2.890790 3.691920 3.393597
v -2.988330 5.071321 3.218947
v -1.489026 5.041864 3.184019
v -1.518016 3.542281 3.204222
v -3.017320 3.571737 3.239150
v -2.869895 4.948641 3.230702
v -1.611509 4.923918 3.201386
v -1.635841 3.665298 3.218342
v -2.894227 3.690020 3.247658
vn 0.0193 0.9997 -0.0135
vn -0.0235 -0.0130 -0.9996
vn -0.0012 -0.7887 0.6147
vn 0.0296 0.8045 0.5933
vn -0.7822 0.0235 0.6225
vn 0.8107 -0.0078 0.5854
vn 0.0235 0.0130 0.9996
vn -0.0193 -0.9997 0.0135
vn 0.9995 -0.0196 -0.0233
vn -0.9995 0.0196 0.0233
usemtl None
s off
f 16//11 14//11 23//11 24//11
f 18//12 19//12 20//12 17//12
f 14//13 16//13 20//13 19//13
f 15//14 13//14 18//14 17//14
f 16//15 15//15 17//15 20//15
f 13//16 14//16 19//16 18//16
f 22//17 21//17 24//17 23//17
f 13//18 15//18 21//18 22//18
f 15//19 16//19 24//19 21//19
f 14//20 13//20 22//20 23//20
o Плоскость.006
v -3.583310 3.684666 1.886209
v -3.599699 2.426046 1.861492
v -3.583526 3.709388 0.627482
v -3.599915 2.450768 0.602765
v -3.423057 3.830168 0.509289
v -3.422800 3.800713 2.009000
v -3.442327 2.301129 1.979550
v -3.442585 2.330585 0.479839
v -3.437547 3.707489 0.627420
v -3.437331 3.682766 1.886147
v -3.453720 2.424146 1.861429
v -3.453936 2.448869 0.602702
vn 0.0130 0.9997 0.0196
vn 0.9999 -0.0130 -0.0004
vn -0.6145 -0.7887 -0.0154
vn -0.5938 0.8045 0.0159
vn -0.6043 0.0235 -0.7964
vn -0.6040 -0.0078 0.7969
vn -0.9999 0.0130 0.0004
vn -0.0130 -0.9997 -0.0196
vn 0.0002 -0.0196 0.9998
vn -0.0002 0.0196 -0.9998
usemtl None
s off
f 28//21 26//21 35//21 36//21
f 30//22 31//22 32//22 29//22
f 26//23 28//23 32//23 31//23
f 27//24 25//24 30//24 29//24
f 28//25 27//25 29//25 32//25
f 25//26 26//26 31//26 30//26
f 34//27 33//27 36//27 35//27
f 25//28 27//28 33//28 34//28
f 27//29 28//29 36//29 33//29
f 26//30 25//30 34//30 35//30
o Плоскость.005
v -3.594347 5.861040 -1.521398
v -3.610737 4.602419 -1.546116
v -3.594563 5.885763 -2.780125
v -3.610953 4.627142 -2.804843
v -3.434095 6.006543 -2.898319
v -3.433838 5.977087 -1.398608
v -3.453365 4.477503 -1.428058
v -3.453622 4.506959 -2.927769
v -3.448585 5.883863 -2.780188
v -3.448369 5.859140 -1.521460
v -3.464758 4.600520 -1.546178
v -3.464974 4.625242 -2.804905
vn 0.0130 0.9997 0.0196
vn 0.9999 -0.0130 -0.0004
vn -0.6145 -0.7887 -0.0154
vn -0.5938 0.8045 0.0159
vn -0.6043 0.0235 -0.7964
vn -0.6040 -0.0078 0.7969
vn -0.9999 0.0130 0.0004
vn -0.0130 -0.9997 -0.0196
vn 0.0002 -0.0196 0.9998
vn -0.0002 0.0196 -0.9998
usemtl None
s off
f 40//31 38//31 47//31 48//31
f 42//32 43//32 44//32 41//32
f 38//33 40//33 44//33 43//33
f 39//34 37//34 42//34 41//34
f 40//35 39//35 41//35 44//35
f 37//36 38//36 43//36 42//36
f 46//37 45//37 48//37 47//37
f 37//38 39//38 45//38 46//38
f 39//39 40//39 48//39 45//39
f 38//40 37//40 46//40 47//40
o Плоскость.004
v 3.213011 2.199151 -0.688655
v 3.177278 0.967237 -0.688655
v 3.213011 2.199151 -1.921088
v 3.177278 0.967237 -1.921088
v 3.534693 2.189821 -1.921088
v 3.534693 2.189821 -0.688655
v 3.498960 0.957906 -0.688655
v 3.498960 0.957906 -1.921088
v 2.959599 2.340342 -2.054871
v 2.959599 2.340342 -0.554871
v 2.916108 0.840972 -0.554871
v 2.916108 0.840972 -2.054871
v 3.299430 2.196645 -1.921088
v 3.299430 2.196645 -0.688655
v 3.263696 0.964730 -0.688655
v 3.263696 0.964730 -1.921088
v 3.324923 2.195905 -1.921088
v 3.324923 2.195905 -0.688655
v 3.289190 0.963991 -0.688655
v 3.289190 0.963991 -1.921088
vn -0.0000 0.0000 -1.0000
vn -0.1967 0.9805 0.0000
vn 0.0000 0.0000 1.0000
vn -0.0290 -0.9996 0.0000
vn 0.0290 0.9996 0.0000
vn 0.9996 -0.0290 0.0000
vn -0.2532 -0.9674 0.0000
vn -0.2250 0.0065 0.9743
vn -0.2250 0.0065 -0.9743
vn -0.9996 0.0290 0.0000
usemtl None
s off
f 50//41 49//41 62//41 63//41
f 55//42 56//42 60//42 59//42
f 49//43 50//43 55//43 54//43
f 50//44 52//44 56//44 55//44
f 51//45 49//45 54//45 53//45
f 52//41 51//41 53//41 56//41
f 58//46 59//46 60//46 57//46
f 53//47 54//47 58//47 57//47
f 56//48 53//48 57//48 60//48
f 54//49 55//49 59//49 58//49
f 61//43 64//43 68//43 65//43
f 52//45 50//45 63//45 64//45
f 49//44 51//44 61//44 62//44
f 51//43 52//43 64//43 61//43
f 66//50 65//50 68//50 67//50
f 63//41 62//41 66//41 67//41
f 64//45 63//45 67//45 68//45
f 62//44 61//44 65//44 66//44
o Плоскость.003
v 3.227924 5.521911 2.215338
v 3.192191 4.289996 2.215338
v 3.227924 5.521911 0.982905
v 3.192191 4.289996 0.982905
v 3.549606 5.512580 0.982905
v 3.549606 5.512580 2.215338
v 3.513873 4.280665 2.215338
v 3.513873 4.280665 0.982905
v 2.974512 5.663101 0.849122
v 2.974512 5.663101 2.349122
v 2.931021 4.163732 2.349122
v 2.931021 4.163732 0.849122
v 3.314342 5.519404 0.982905
v 3.314342 5.519404 2.215338
v 3.278609 4.287489 2.215338
v 3.278609 4.287489 0.982905
v 3.339836 5.518664 0.982905
v 3.339836 5.518664 2.215338
v 3.304102 4.286750 2.215338
v 3.304102 4.286750 0.982905
vn 0.0000 0.0000 -1.0000
vn -0.1967 0.9805 0.0000
vn 0.0000 0.0000 1.0000
vn -0.0290 -0.9996 0.0000
vn 0.0290 0.9996 0.0000
vn 0.9996 -0.0290 0.0000
vn -0.2532 -0.9674 0.0000
vn -0.2250 0.0065 0.9743
vn -0.2250 0.0065 -0.9743
vn -0.9996 0.0290 0.0000
usemtl None
s off
f 70//51 69//51 82//51 83//51
f 75//52 76//52 80//52 79//52
f 69//53 70//53 75//53 74//53
f 70//54 72//54 76//54 75//54
f 71//55 69//55 74//55 73//55
f 72//51 71//51 73//51 76//51
f 78//56 79//56 80//56 77//56
f 73//57 74//57 78//57 77//57
f 76//58 73//58 77//58 80//58
f 74//59 75//59 79//59 78//59
f 81//53 84//53 88//53 85//53
f 72//55 70//55 83//55 84//55
f 69//54 71//54 81//54 82//54
f 71//53 72//53 84//53 81//53
f 86//60 85//60 88//60 87//60
f 83//51 82//51 86//51 87//51
f 84//55 83//55 87//55 88//55
f 82//54 81//54 85//54 86//54
o Плоскость.002
v 3.227924 5.521911 2.215338
v 3.192191 4.289996 2.215338
v 3.227924 5.521911 0.982905
v 3.192191 4.289996 0.982905
v 3.549606 5.512580 0.982905
v 3.549606 5.512580 2.215338
v 3.513873 4.280665 2.215338
v 3.513873 4.280665 0.982905
v 2.974512 5.663101 0.849122
v 2.974512 5.663101 2.349122
v 2.931021 4.163732 2.349122
v 2.931021 4.163732 0.849122
v 3.314342 5.519404 0.982905
v 3.314342 5.519404 2.215338
v 3.278609 4.287489 2.215338
v 3.278609 4.287489 0.982905
v 3.339836 5.518664 0.982905
v 3.339836 5.518664 2.215338
v 3.304102 4.286750 2.215338
v 3.304102 4.286750 0.982905
vn 0.0000 0.0000 -1.0000
vn -0.1967 0.9805 0.0000
vn 0.0000 0.0000 1.0000
vn -0.0290 -0.9996 0.0000
vn 0.0290 0.9996 0.0000
vn 0.9996 -0.0290 0.0000
vn -0.2532 -0.9674 0.0000
vn -0.2250 0.0065 0.9743
vn -0.2250 0.0065 -0.9743
vn -0.9996 0.0290 0.0000
usemtl None
s off
f 90//61 89//61 102//61 103//61
f 95//62 96//62 100//62 99//62
f 89//63 90//63 95//63 94//63
f 90//64 92//64 96//64 95//64
f 91//65 89//65 94//65 93//65
f 92//61 91//61 93//61 96//61
f 98//66 99//66 100//66 97//66
f 93//67 94//67 98//67 97//67
f 96//68 93//68 97//68 100//68
f 94//69 95//69 99//69 98//69
f 101//63 104//63 108//63 105//63
f 92//65 90//65 103//65 104//65
f 89//64 91//64 101//64 102//64
f 91//63 92//63 104//63 101//63
f 106//70 105//70 108//70 107//70
f 103//61 102//61 106//61 107//61
f 104//65 103//65 107//65 108//65
f 102//64 101//64 105//64 106//64
o Плоскость.001
v -0.958037 0.122477 3.558798
v 0.277373 0.118925 3.545721
v -0.960993 2.120324 3.466287
v 0.274422 2.116772 3.453210
v -0.959425 2.109365 3.229360
v -0.956469 0.111518 3.321871
v 0.278942 0.107967 3.308794
v 0.275991 2.105814 3.216283
v -1.089470 2.319890 3.230911
v -1.085893 -0.097346 3.342842
v 0.408855 -0.101643 3.327020
v 0.405285 2.315593 3.215090
v -0.959099 2.107094 3.180255
v -0.956143 0.109247 3.272766
v 0.279267 0.105695 3.259689
v 0.276316 2.103542 3.167178
v -0.960469 2.116659 3.387039
v -0.957513 0.118811 3.479551
v 0.277898 0.115260 3.466473
v 0.274947 2.113107 3.373963
v -0.960055 2.113768 3.324545
v -0.957099 0.115921 3.417056
v 0.278312 0.112369 3.403979
v 0.275360 2.110216 3.311468
vn 0.0024 0.9989 -0.0462
vn 0.0655 -0.0461 -0.9968
vn -0.0024 -0.9989 0.0462
vn -1.0000 -0.0018 -0.0065
vn 1.0000 0.0018 0.0065
vn 0.0107 0.0463 0.9989
vn -0.0867 -0.0462 -0.9952
vn -0.0106 0.0008 -0.9999
vn -0.0108 -0.0933 -0.9956
vn -0.0107 -0.0463 -0.9989
usemtl None
s off
f 111//71 112//71 124//71 121//71
f 115//72 116//72 120//72 119//72
f 112//73 111//73 113//73 116//73
f 109//71 110//71 115//71 114//71
f 110//74 112//74 116//74 115//74
f 111//75 109//75 114//75 113//75
f 118//76 119//76 120//76 117//76
f 113//77 114//77 118//77 117//77
f 116//78 113//78 117//78 120//78
f 114//79 115//79 119//79 118//79
f 121//73 124//73 128//73 125//73
f 110//73 109//73 122//73 123//73
f 112//75 110//75 123//75 124//75
f 109//74 111//74 121//74 122//74
f 128//75 127//75 131//75 132//75
f 123//71 122//71 126//71 127//71
f 124//74 123//74 127//74 128//74
f 122//75 121//75 125//75 126//75
f 130//80 129//80 132//80 131//80
f 126//74 125//74 129//74 130//74
f 125//71 128//71 132//71 129//71
f 127//73 126//73 130//73 131//73
o Конус_Конус.002
v -0.276757 8.164678 1.320798
v -0.919510 8.171361 1.554754
v -1.261512 8.174917 2.147150
v -1.142736 8.173682 2.820798
v -0.618759 8.168234 3.260491
v -0.297551 6.164786 2.320798
v 0.065245 8.161122 3.260491
v 0.589221 8.155674 2.820798
v 0.707997 8.154439 2.147150
v 0.365996 8.157995 1.554754
v -0.276757 8.569650 1.819786
v -0.598784 8.576333 1.937001
v -0.770131 8.579889 2.233798
v -0.710623 8.578654 2.571304
v -0.448104 8.573206 2.791596
v -0.105410 8.566094 2.791596
v 0.157109 8.560646 2.571304
v 0.216617 8.559411 2.233798
v 0.045270 8.562967 1.937001
vn -0.3140 -0.4220 -0.8505
vn -0.7882 -0.4171 -0.4525
vn -0.8957 -0.4160 0.1572
vn -0.5862 -0.4192 0.6933
vn -0.0044 -0.4252 0.9051
vn 0.5773 -0.4313 0.6933
vn 0.8869 -0.4345 0.1572
vn 0.7794 -0.4334 -0.4525
vn 0.3051 -0.4284 -0.8505
vn 0.5687 0.7568 -0.3223
vn -0.5635 0.7568 -0.3313
vn 0.0105 0.7568 0.6536
vn -0.2143 0.7568 -0.6176
vn 0.2328 0.7568 -0.6108
vn -0.4140 0.7568 0.5059
vn 0.6440 0.7568 0.1117
vn -0.6434 0.7568 0.1153
vn 0.4263 0.7568 0.4955
vn 0.0207 0.9998 0.0000
usemtl None
s off
f 133//81 138//81 134//81
f 134//82 138//82 135//82
f 135//83 138//83 136//83
f 136//84 138//84 137//84
f 137//85 138//85 139//85
f 139//86 138//86 140//86
f 140//87 138//87 141//87
f 141//88 138//88 142//88
f 142//89 138//89 133//89
f 141//90 142//90 151//90 150//90
f 134//91 135//91 145//91 144//91
f 137//92 139//92 148//92 147//92
f 133//93 134//93 144//93 143//93
f 142//94 133//94 143//94 151//94
f 136//95 137//95 147//95 146//95
f 140//96 141//96 150//96 149//96
f 135//97 136//97 146//97 145//97
f 139//98 140//98 149//98 148//98
f 143//99 144//99 145//99 146//99 147//99 148//99 149//99 150//99 151//99
o Cube
v 2.988093 -0.157351 -3.234098
v 2.988093 -0.157351 3.205132
v -3.451138 -0.157351 3.205131
v -3.451136 -0.157351 -3.234099
v 2.988094 6.281879 -3.234097
v 2.988091 6.281879 3.205134
v -3.451138 6.281879 3.205131
v -3.451137 6.281879 -3.234098
v 2.283618 -0.157351 -3.234099
v -2.746660 -0.157351 -3.234099
v 2.283617 -0.157351 3.205132
v -2.746662 -0.157351 3.205131
v 2.283620 6.281879 -3.234097
v -2.746660 6.281879 -3.234098
v 2.283613 6.281879 3.205132
v -2.746665 6.281879 3.205132
v 2.283618 -0.157351 -4.521558
v -2.746660 -0.157351 -4.521559
v 2.283620 6.281879 -4.521557
v -2.746660 6.281879 -4.521557
v -3.451138 -0.157351 3.205131
v -2.746662 -0.157351 3.205131
v 2.283613 6.281879 3.205132
v -2.746665 6.281879 3.205132
vn 0.0000 -1.0000 0.0000
vn 0.0000 1.0000 0.0000
vn 1.0000 0.0000 0.0000
vn -0.0000 0.0000 1.0000
vn -1.0000 -0.0000 -0.0000
vn 0.0000 0.0000 -1.0000
usemtl Material
s off
f 161//100 163//100 154//100 155//100
f 165//101 159//101 158//101 167//101
f 152//102 156//102 157//102 153//102
f 163//103 167//103 158//103 154//103
f 154//104 158//104 159//104 155//104
f 165//105 161//105 155//105 159//105
f 156//105 152//105 160//105 164//105
f 161//104 165//104 171//104 169//104
f 153//103 157//103 166//103 162//103
f 162//103 166//103 167//103 163//103
f 156//101 164//101 166//101 157//101
f 164//101 165//101 167//101 166//101
f 152//100 153//100 162//100 160//100
f 160//100 162//100 163//100 161//100
f 170//105 168//105 169//105 171//105
f 165//101 164//101 170//101 171//101
f 160//100 161//100 169//100 168//100
f 164//102 160//102 168//102 170//102
f 163//103 154//103 172//103 173//103
f 166//103 167//103 175//103 174//103
