# Blender v2.79 (sub 0) OBJ File: 'Diamond.blend'
# www.blender.org
mtllib Diamond11111111.mtl
v 0.449632 -0.368493 -0.398450
v 0.449632 -0.368493 0.398450
v -0.449632 -0.368493 0.398450
v -0.449632 -0.368493 -0.398450
v 0.449632 0.368493 -0.398449
v 0.449632 0.368493 0.398450
v -0.449632 0.368493 0.398450
v -0.449632 0.368493 -0.398450
v 0.351249 -0.368493 -0.398450
v -0.351249 -0.368493 -0.398450
v 0.351249 -0.368493 0.398450
v -0.351249 -0.368493 0.398450
v 0.351249 0.368493 -0.398450
v -0.351249 0.368493 -0.398450
v 0.351248 0.368493 0.398450
v -0.351249 0.368493 0.398450
v 0.351249 -0.368493 -0.557782
v -0.351249 -0.368493 -0.557782
v 0.351249 0.368493 -0.557782
v -0.351249 0.368493 -0.557782
v -0.449632 -0.368493 0.398450
v -0.351249 -0.368493 0.398450
v 0.351248 0.368493 0.398450
v -0.351249 0.368493 0.398450
v 0.349208 0.203338 0.413908
v 0.345761 0.059286 0.415943
v 0.173422 0.206168 0.414256
v 0.169975 0.062115 0.416290
v 0.156870 0.219991 0.394427
v 0.366310 0.216620 0.394012
v 0.362202 0.044989 0.396437
v 0.152763 0.048360 0.396851
v 0.173371 0.205950 0.396190
v 0.349157 0.203121 0.395842
v 0.345710 0.059068 0.397877
v 0.169924 0.061898 0.398225
v -0.192241 0.213289 0.416047
v -0.195639 0.069236 0.418145
v -0.367979 0.216118 0.419675
v -0.371377 0.072066 0.421773
v -0.384999 0.229942 0.400159
v -0.175615 0.226570 0.395837
v -0.179664 0.054939 0.398337
v -0.389048 0.058310 0.402660
v -0.368459 0.215901 0.401614
v -0.192721 0.213071 0.397986
v -0.196119 0.069019 0.400085
v -0.371857 0.071848 0.403713
v -0.468090 0.071236 0.235224
v -0.470379 -0.072817 0.232165
v -0.468120 0.074065 0.079448
v -0.470409 -0.069987 0.076389
v -0.445710 0.087889 0.064820
v -0.445674 0.084517 0.250420
v -0.448401 -0.087114 0.246775
v -0.448437 -0.083743 0.061176
v -0.447734 0.073848 0.079440
v -0.447704 0.071018 0.235216
v -0.449993 -0.073034 0.232157
v -0.450023 -0.070205 0.076381
v -0.469632 0.320327 -0.186491
v -0.471921 0.176275 -0.189550
v -0.469662 0.323157 -0.342267
v -0.471951 0.179104 -0.345326
v -0.447252 0.336980 -0.356895
v -0.447216 0.333609 -0.171295
v -0.449943 0.161978 -0.174940
v -0.449979 0.165349 -0.360539
v -0.449275 0.322939 -0.342275
v -0.449245 0.320110 -0.186499
v -0.451534 0.176057 -0.189558
v -0.451564 0.178887 -0.345334
v 0.481043 -0.098786 -0.083433
v 0.476052 -0.239781 -0.083433
v 0.481043 -0.098786 -0.235955
v 0.476052 -0.239781 -0.235955
v 0.525967 -0.099853 -0.235955
v 0.525967 -0.099853 -0.083433
v 0.520976 -0.240849 -0.083433
v 0.520976 -0.240849 -0.235955
v 0.445653 -0.082626 -0.252512
v 0.445653 -0.082626 -0.066877
v 0.439579 -0.254233 -0.066877
v 0.439579 -0.254233 -0.252512
v 0.493111 -0.099072 -0.235955
v 0.493111 -0.099072 -0.083433
v 0.488121 -0.240068 -0.083433
v 0.488121 -0.240068 -0.235955
v 0.496671 -0.099157 -0.235955
v 0.496671 -0.099157 -0.083433
v 0.491681 -0.240153 -0.083433
v 0.491681 -0.240153 -0.235955
v 0.483125 0.281513 0.275956
v 0.478135 0.140517 0.275956
v 0.483125 0.281513 0.123434
v 0.478135 0.140517 0.123434
v 0.528049 0.280445 0.123434
v 0.528049 0.280445 0.275956
v 0.523059 0.139449 0.275956
v 0.523059 0.139449 0.123434
v 0.447735 0.297673 0.106877
v 0.447735 0.297673 0.292513
v 0.441662 0.126066 0.292513
v 0.441662 0.126066 0.106877
v 0.495194 0.281226 0.123434
v 0.495194 0.281226 0.275956
v 0.490204 0.140230 0.275956
v 0.490204 0.140230 0.123434
v 0.498754 0.281141 0.123434
v 0.498754 0.281141 0.275956
v 0.493764 0.140146 0.275956
v 0.493764 0.140146 0.123434
v 0.483125 0.281513 0.275956
v 0.478135 0.140517 0.275956
v 0.483125 0.281513 0.123434
v 0.478135 0.140517 0.123434
v 0.528049 0.280445 0.123434
v 0.528049 0.280445 0.275956
v 0.523059 0.139449 0.275956
v 0.523059 0.139449 0.123434
v 0.447735 0.297673 0.106877
v 0.447735 0.297673 0.292513
v 0.441662 0.126066 0.292513
v 0.441662 0.126066 0.106877
v 0.495194 0.281226 0.123434
v 0.495194 0.281226 0.275956
v 0.490204 0.140230 0.275956
v 0.490204 0.140230 0.123434
v 0.498754 0.281141 0.123434
v 0.498754 0.281141 0.275956
v 0.493764 0.140146 0.275956
v 0.493764 0.140146 0.123434
v -0.101461 -0.336466 0.442218
v 0.071069 -0.336873 0.440600
v -0.101873 -0.107808 0.430769
v 0.070657 -0.108214 0.429151
v -0.101654 -0.109062 0.401448
v -0.101242 -0.337721 0.412897
v 0.071288 -0.338127 0.411279
v 0.070876 -0.109468 0.399830
v -0.119816 -0.084967 0.401640
v -0.119316 -0.361626 0.415492
v 0.089431 -0.362117 0.413534
v 0.088933 -0.085458 0.399682
v -0.101609 -0.109322 0.395371
v -0.101196 -0.337981 0.406820
v 0.071334 -0.338387 0.405202
v 0.070922 -0.109728 0.393753
v -0.101800 -0.108227 0.420962
v -0.101387 -0.336886 0.432411
v 0.071143 -0.337292 0.430793
v 0.070730 -0.108634 0.419344
v -0.101742 -0.108558 0.413228
v -0.101330 -0.337217 0.424677
v 0.071200 -0.337623 0.423058
v 0.070788 -0.108964 0.411610
v -0.006317 0.583985 0.165250
v -0.096080 0.584750 0.194204
v -0.143842 0.585157 0.267517
v -0.127255 0.585015 0.350886
v -0.054079 0.584392 0.405301
v -0.009221 0.355092 0.289007
v 0.041445 0.583578 0.405301
v 0.114620 0.582954 0.350886
v 0.131208 0.582813 0.267517
v 0.083446 0.583220 0.194204
v -0.006317 0.630335 0.227004
v -0.051290 0.631100 0.241510
v -0.075219 0.631507 0.278240
v -0.066908 0.631365 0.320009
v -0.030246 0.630742 0.347272
v 0.017612 0.629928 0.347272
v 0.054274 0.629304 0.320009
v 0.062584 0.629163 0.278240
v 0.038655 0.629570 0.241510
vn 0.0000 -1.0000 -0.0000
vn 0.0000 1.0000 0.0000
vn 1.0000 0.0000 0.0000
vn -0.0000 0.0000 1.0000
vn -1.0000 -0.0000 -0.0000
vn 0.0000 0.0000 -1.0000
vn 0.0161 0.9998 -0.0121
vn -0.0022 -0.0141 -0.9999
vn -0.0119 -0.8112 0.5846
vn 0.0144 0.8258 0.5637
vn -0.7579 0.0273 0.6518
vn 0.7613 -0.0091 0.6483
vn 0.0022 0.0141 0.9999
vn -0.0161 -0.9998 0.0121
vn 0.9997 -0.0240 -0.0025
vn -0.9997 0.0240 0.0025
vn 0.0158 0.9998 -0.0125
vn -0.0209 -0.0141 -0.9997
vn -0.0010 -0.8112 0.5847
vn 0.0249 0.8259 0.5633
vn -0.7437 0.0273 0.6679
vn 0.7752 -0.0091 0.6317
vn 0.0209 0.0141 0.9997
vn -0.0158 -0.9998 0.0125
vn 0.9994 -0.0240 -0.0263
vn -0.9994 0.0240 0.0263
vn 0.0107 0.9998 0.0182
vn 0.9999 -0.0159 -0.0005
vn -0.5381 -0.8427 -0.0152
vn -0.5175 0.8555 0.0156
vn -0.5578 0.0265 -0.8296
vn -0.5575 -0.0088 0.8301
vn -0.9999 0.0159 0.0005
vn -0.0107 -0.9998 -0.0182
vn 0.0002 -0.0212 0.9998
vn -0.0002 0.0212 -0.9998
vn -0.1622 0.9868 0.0000
vn -0.0238 -0.9997 0.0000
vn 0.0238 0.9997 0.0000
vn 0.9994 -0.0354 0.0000
vn -0.2097 -0.9778 0.0000
vn -0.2004 0.0071 0.9797
vn -0.2004 0.0071 -0.9797
vn -0.9994 0.0354 0.0000
vn 0.0020 0.9991 -0.0427
vn 0.0581 -0.0498 -0.9971
vn -0.0020 -0.9991 0.0427
vn -1.0000 -0.0022 -0.0074
vn 1.0000 0.0022 0.0074
vn 0.0095 0.0500 0.9987
vn -0.0769 -0.0500 -0.9958
vn -0.0094 0.0009 -1.0000
vn -0.0096 -0.1008 -0.9949
vn -0.0095 -0.0500 -0.9987
vn -0.2770 -0.4543 -0.8467
vn -0.7379 -0.4764 -0.4781
vn -0.8574 -0.4858 0.1698
vn -0.5313 -0.4636 0.7091
vn -0.0039 -0.4529 0.8915
vn 0.5222 -0.4760 0.7077
vn 0.8460 -0.5057 0.1692
vn 0.7274 -0.4936 -0.4767
vn 0.2689 -0.4607 -0.8458
vn 0.4972 0.8073 -0.3179
vn -0.4923 0.8068 -0.3267
vn 0.0089 0.7813 0.6241
vn -0.1821 0.7848 -0.5923
vn 0.1980 0.7855 -0.5863
vn -0.3563 0.7948 0.4913
vn 0.5685 0.8151 0.1113
vn -0.5679 0.8151 0.1148
vn 0.3673 0.7956 0.4818
vn 0.0170 0.9999 0.0000
usemtl Material
s off
f 10//1 12//1 3//1 4//1
f 14//2 8//2 7//2 16//2
f 1//3 5//3 6//3 2//3
f 12//4 16//4 7//4 3//4
f 3//5 7//5 8//5 4//5
f 14//6 10//6 4//6 8//6
f 5//6 1//6 9//6 13//6
f 10//5 14//5 20//5 18//5
f 2//4 6//4 15//4 11//4
f 11//4 15//4 16//4 12//4
f 5//2 13//2 15//2 6//2
f 13//2 14//2 16//2 15//2
f 1//1 2//1 11//1 9//1
f 9//1 11//1 12//1 10//1
f 19//6 17//6 18//6 20//6
f 14//2 13//2 19//2 20//2
f 9//1 10//1 18//1 17//1
f 13//3 9//3 17//3 19//3
f 12//4 3//4 21//4 22//4
f 15//4 16//4 24//4 23//4
f 28//7 26//7 35//7 36//7
f 30//8 31//8 32//8 29//8
f 26//9 28//9 32//9 31//9
f 27//10 25//10 30//10 29//10
f 28//11 27//11 29//11 32//11
f 25//12 26//12 31//12 30//12
f 34//13 33//13 36//13 35//13
f 25//14 27//14 33//14 34//14
f 27//15 28//15 36//15 33//15
f 26//16 25//16 34//16 35//16
f 40//17 38//17 47//17 48//17
f 42//18 43//18 44//18 41//18
f 38//19 40//19 44//19 43//19
f 39//20 37//20 42//20 41//20
f 40//21 39//21 41//21 44//21
f 37//22 38//22 43//22 42//22
f 46//23 45//23 48//23 47//23
f 37//24 39//24 45//24 46//24
f 39//25 40//25 48//25 45//25
f 38//26 37//26 46//26 47//26
f 52//27 50//27 59//27 60//27
f 54//28 55//28 56//28 53//28
f 50//29 52//29 56//29 55//29
f 51//30 49//30 54//30 53//30
f 52//31 51//31 53//31 56//31
f 49//32 50//32 55//32 54//32
f 58//33 57//33 60//33 59//33
f 49//34 51//34 57//34 58//34
f 51//35 52//35 60//35 57//35
f 50//36 49//36 58//36 59//36
f 64//27 62//27 71//27 72//27
f 66//28 67//28 68//28 65//28
f 62//29 64//29 68//29 67//29
f 63//30 61//30 66//30 65//30
f 64//31 63//31 65//31 68//31
f 61//32 62//32 67//32 66//32
f 70//33 69//33 72//33 71//33
f 61//34 63//34 69//34 70//34
f 63//35 64//35 72//35 69//35
f 62//36 61//36 70//36 71//36
f 74//6 73//6 86//6 87//6
f 79//37 80//37 84//37 83//37
f 73//4 74//4 79//4 78//4
f 74//38 76//38 80//38 79//38
f 75//39 73//39 78//39 77//39
f 76//6 75//6 77//6 80//6
f 82//40 83//40 84//40 81//40
f 77//41 78//41 82//41 81//41
f 80//42 77//42 81//42 84//42
f 78//43 79//43 83//43 82//43
f 85//4 88//4 92//4 89//4
f 76//39 74//39 87//39 88//39
f 73//38 75//38 85//38 86//38
f 75//4 76//4 88//4 85//4
f 90//44 89//44 92//44 91//44
f 87//6 86//6 90//6 91//6
f 88//39 87//39 91//39 92//39
f 86//38 85//38 89//38 90//38
f 94//6 93//6 106//6 107//6
f 99//37 100//37 104//37 103//37
f 93//4 94//4 99//4 98//4
f 94//38 96//38 100//38 99//38
f 95//39 93//39 98//39 97//39
f 96//6 95//6 97//6 100//6
f 102//40 103//40 104//40 101//40
f 97//41 98//41 102//41 101//41
f 100//42 97//42 101//42 104//42
f 98//43 99//43 103//43 102//43
f 105//4 108//4 112//4 109//4
f 96//39 94//39 107//39 108//39
f 93//38 95//38 105//38 106//38
f 95//4 96//4 108//4 105//4
f 110//44 109//44 112//44 111//44
f 107//6 106//6 110//6 111//6
f 108//39 107//39 111//39 112//39
f 106//38 105//38 109//38 110//38
f 114//6 113//6 126//6 127//6
f 119//37 120//37 124//37 123//37
f 113//4 114//4 119//4 118//4
f 114//38 116//38 120//38 119//38
f 115//39 113//39 118//39 117//39
f 116//6 115//6 117//6 120//6
f 122//40 123//40 124//40 121//40
f 117//41 118//41 122//41 121//41
f 120//42 117//42 121//42 124//42
f 118//43 119//43 123//43 122//43
f 125//4 128//4 132//4 129//4
f 116//39 114//39 127//39 128//39
f 113//38 115//38 125//38 126//38
f 115//4 116//4 128//4 125//4
f 130//44 129//44 132//44 131//44
f 127//6 126//6 130//6 131//6
f 128//39 127//39 131//39 132//39
f 126//38 125//38 129//38 130//38
f 135//45 136//45 148//45 145//45
f 139//46 140//46 144//46 143//46
f 136//47 135//47 137//47 140//47
f 133//45 134//45 139//45 138//45
f 134//48 136//48 140//48 139//48
f 135//49 133//49 138//49 137//49
f 142//50 143//50 144//50 141//50
f 137//51 138//51 142//51 141//51
f 140//52 137//52 141//52 144//52
f 138//53 139//53 143//53 142//53
f 145//47 148//47 152//47 149//47
f 134//47 133//47 146//47 147//47
f 136//49 134//49 147//49 148//49
f 133//48 135//48 145//48 146//48
f 152//49 151//49 155//49 156//49
f 147//45 146//45 150//45 151//45
f 148//48 147//48 151//48 152//48
f 146//49 145//49 149//49 150//49
f 154//54 153//54 156//54 155//54
f 150//48 149//48 153//48 154//48
f 149//45 152//45 156//45 153//45
f 151//47 150//47 154//47 155//47
f 157//55 162//55 158//55
f 158//56 162//56 159//56
f 159//57 162//57 160//57
f 160//58 162//58 161//58
f 161//59 162//59 163//59
f 163//60 162//60 164//60
f 164//61 162//61 165//61
f 165//62 162//62 166//62
f 166//63 162//63 157//63
f 165//64 166//64 175//64 174//64
f 158//65 159//65 169//65 168//65
f 161//66 163//66 172//66 171//66
f 157//67 158//67 168//67 167//67
f 166//68 157//68 167//68 175//68
f 160//69 161//69 171//69 170//69
f 164//70 165//70 174//70 173//70
f 159//71 160//71 170//71 169//71
f 163//72 164//72 173//72 172//72
f 167//73 168//73 169//73 170//73 171//73 172//73 173//73 174//73 175//73
